P3
# Created by GIMP version 2.10.32 PNM plug-in
11 10
255
0
0
0
0
0
0
255
255
255
255
255
255
255
255
255
255
255
255
255
255
255
255
255
255
0
0
0
0
0
0
127
127
127
0
0
0
67
176
42
0
0
0
255
255
255
255
255
255
255
255
255
255
255
255
0
0
0
67
176
42
0
0
0
127
127
127
0
0
0
67
176
42
67
176
42
0
0
0
255
255
255
255
255
255
0
0
0
67
176
42
67
176
42
0
0
0
127
127
127
0
0
0
67
176
42
0
140
21
67
176
42
0
0
0
0
0
0
67
176
42
0
140
21
67
176
42
0
0
0
127
127
127
0
0
0
67
176
42
0
0
0
0
140
21
67
176
42
67
176
42
0
140
21
0
0
0
67
176
42
0
0
0
127
127
127
0
0
0
67
176
42
0
0
0
0
0
0
0
140
21
0
140
21
0
0
0
0
0
0
67
176
42
0
0
0
127
127
127
0
0
0
67
176
42
0
0
0
255
255
255
0
0
0
0
0
0
255
255
255
0
0
0
67
176
42
0
0
0
127
127
127
0
0
0
67
176
42
0
0
0
255
255
255
255
255
255
255
255
255
255
255
255
0
0
0
67
176
42
0
0
0
127
127
127
0
0
0
0
140
21
0
0
0
255
255
255
255
255
255
255
255
255
255
255
255
0
0
0
0
140
21
0
0
0
127
127
127
0
0
0
0
0
0
0
0
0
255
255
255
255
255
255
255
255
255
255
255
255
0
0
0
0
0
0
0
0
0
127
127
127
