P3
# Created by GIMP version 2.10.32 PNM plug-in
11 10
255
255
255
255
255
255
255
255
255
255
0
0
0
0
0
0
0
0
0
0
0
0
255
255
255
255
255
255
255
255
255
127
127
127
255
255
255
255
255
255
0
0
0
238
255
1
238
255
1
238
255
1
238
255
1
0
0
0
255
255
255
255
255
255
127
127
127
255
255
255
0
0
0
238
255
1
252
227
0
252
227
0
252
227
0
252
227
0
238
255
1
0
0
0
255
255
255
127
127
127
255
255
255
0
0
0
238
255
1
0
0
0
0
0
0
0
0
0
0
0
0
238
255
1
0
0
0
255
255
255
127
127
127
255
255
255
0
0
0
238
255
1
0
0
0
255
255
255
255
255
255
0
0
0
238
255
1
0
0
0
255
255
255
127
127
127
255
255
255
0
0
0
238
255
1
0
0
0
255
255
255
255
255
255
0
0
0
238
255
1
0
0
0
255
255
255
127
127
127
255
255
255
0
0
0
252
227
0
238
255
1
238
255
1
238
255
1
238
255
1
0
0
0
255
255
255
255
255
255
127
127
127
255
255
255
255
255
255
0
0
0
252
227
0
252
227
0
252
227
0
238
255
1
238
255
1
0
0
0
255
255
255
127
127
127
255
255
255
255
255
255
255
255
255
0
0
0
0
0
0
0
0
0
252
227
0
252
227
0
0
0
0
255
255
255
127
127
127
255
255
255
255
255
255
255
255
255
255
255
255
255
255
255
255
255
255
0
0
0
0
0
0
0
0
0
255
255
255
127
127
127
