P3
# Created by GIMP version 2.10.32 PNM plug-in
11 10
255
255
255
255
255
255
255
255
255
255
0
0
0
0
0
0
0
0
0
0
0
0
0
0
0
0
0
0
255
255
255
127
127
127
255
255
255
255
255
255
0
0
0
255
62
165
255
62
165
255
62
165
255
62
165
255
62
165
0
0
0
255
255
255
127
127
127
255
255
255
0
0
0
255
62
165
227
28
121
227
28
121
227
28
121
227
28
121
227
28
121
0
0
0
255
255
255
127
127
127
255
255
255
0
0
0
255
62
165
255
255
255
255
255
255
255
255
255
255
255
255
255
255
255
255
255
255
255
255
255
127
127
127
255
255
255
0
0
0
227
28
121
255
62
165
255
62
165
255
62
165
255
62
165
255
62
165
0
0
0
255
255
255
127
127
127
255
255
255
255
255
255
0
0
0
227
28
121
227
28
121
227
28
121
227
28
121
255
62
165
0
0
0
255
255
255
127
127
127
255
255
255
255
255
255
255
255
255
255
255
255
255
255
255
255
255
255
255
255
255
255
62
165
0
0
0
255
255
255
127
127
127
255
255
255
0
0
0
255
62
165
255
62
165
255
62
165
255
62
165
255
62
165
227
28
121
0
0
0
255
255
255
127
127
127
255
255
255
0
0
0
227
28
121
227
28
121
227
28
121
227
28
121
227
28
121
0
0
0
255
255
255
255
255
255
127
127
127
255
255
255
0
0
0
0
0
0
0
0
0
0
0
0
0
0
0
0
0
0
255
255
255
255
255
255
255
255
255
127
127
127
