P3
# Created by GIMP version 2.10.32 PNM plug-in
11 10
255
255
255
255
0
0
0
0
0
0
0
0
0
0
0
0
0
0
0
0
0
0
0
0
0
0
0
0
255
255
255
127
127
127
255
255
255
0
0
0
249
66
58
249
66
58
249
66
58
249
66
58
249
66
58
249
66
58
0
0
0
255
255
255
127
127
127
255
255
255
0
0
0
155
83
49
155
83
49
249
66
58
249
66
58
155
83
49
155
83
49
0
0
0
255
255
255
127
127
127
255
255
255
0
0
0
0
0
0
0
0
0
249
66
58
249
66
58
0
0
0
0
0
0
0
0
0
255
255
255
127
127
127
255
255
255
255
255
255
255
255
255
0
0
0
249
66
58
249
66
58
0
0
0
255
255
255
255
255
255
255
255
255
127
127
127
255
255
255
255
255
255
255
255
255
0
0
0
249
66
58
249
66
58
0
0
0
255
255
255
255
255
255
255
255
255
127
127
127
255
255
255
255
255
255
255
255
255
0
0
0
249
66
58
249
66
58
0
0
0
255
255
255
255
255
255
255
255
255
127
127
127
255
255
255
255
255
255
255
255
255
0
0
0
249
66
58
249
66
58
0
0
0
255
255
255
255
255
255
255
255
255
127
127
127
255
255
255
255
255
255
255
255
255
0
0
0
155
83
49
155
83
49
0
0
0
255
255
255
255
255
255
255
255
255
127
127
127
255
255
255
255
255
255
255
255
255
0
0
0
0
0
0
0
0
0
0
0
0
255
255
255
255
255
255
255
255
255
127
127
127
