P3
# Created by GIMP version 2.10.32 PNM plug-in
11 10
255
0
0
0
5
195
221
5
195
221
5
195
221
5
195
221
5
195
221
5
195
221
5
195
221
5
195
221
0
0
0
127
127
127
0
0
0
0
71
187
0
71
187
0
71
187
0
71
187
0
71
187
0
71
187
5
195
221
5
195
221
0
0
0
127
127
127
0
0
0
0
0
0
0
0
0
0
0
0
0
0
0
0
0
0
0
0
0
5
195
221
0
71
187
0
0
0
127
127
127
255
255
255
255
255
255
255
255
255
255
255
255
255
255
255
0
0
0
5
195
221
0
71
187
0
0
0
255
255
255
127
127
127
255
255
255
255
255
255
255
255
255
255
255
255
0
0
0
5
195
221
0
71
187
0
0
0
255
255
255
255
255
255
127
127
127
255
255
255
255
255
255
255
255
255
0
0
0
5
195
221
0
71
187
0
0
0
255
255
255
255
255
255
255
255
255
127
127
127
255
255
255
0
0
0
0
0
0
5
195
221
0
71
187
0
0
0
255
255
255
255
255
255
255
255
255
255
255
255
127
127
127
0
0
0
5
195
221
5
195
221
0
71
187
0
0
0
255
255
255
255
255
255
255
255
255
255
255
255
255
255
255
127
127
127
0
0
0
5
195
221
5
195
221
5
195
221
5
195
221
5
195
221
5
195
221
5
195
221
5
195
221
0
0
0
127
127
127
0
0
0
0
71
187
0
71
187
0
71
187
0
71
187
0
71
187
0
71
187
0
71
187
0
71
187
0
0
0
127
127
127
